REM DIRINDEX 1\2,1\4,1\3\5,1\3\6,1\3\7
REM DIRNAME cjc081,folder01,folder02,folder03,folder04,folder05,folder06
TITLE ""
FILE "CD2Track64.mp3" MP3
  TRACK 01 AUDIO
    TITLE "0:"
    INDEX 01 00:00:00
  TRACK 02 AUDIO
    TITLE "4:cjc081_2278"
    INDEX 01 00:00:25
  TRACK 03 AUDIO
    TITLE "0:"
    INDEX 01 00:04:42
  TRACK 04 AUDIO
    TITLE "5:cjc081_2279"
    INDEX 01 00:05:10
  TRACK 05 AUDIO
    TITLE "0:"
    INDEX 01 00:06:35
  TRACK 06 AUDIO
    TITLE "6:cjc081_2280"
    INDEX 01 00:07:07
  TRACK 07 AUDIO
    TITLE "0:"
    INDEX 01 00:08:30
  TRACK 08 AUDIO
    TITLE "5:cjc081_2281"
    INDEX 01 00:08:73
  TRACK 09 AUDIO
    TITLE "0:"
    INDEX 01 00:10:57
  TRACK 10 AUDIO
    TITLE "6:cjc081_2282"
    INDEX 01 00:11:21
  TRACK 11 AUDIO
    TITLE "0:"
    INDEX 01 00:13:53
  TRACK 12 AUDIO
    TITLE "5:cjc081_2283"
    INDEX 01 00:14:17
  TRACK 13 AUDIO
    TITLE "0:"
    INDEX 01 00:15:44
  TRACK 14 AUDIO
    TITLE "6:cjc081_2284"
    INDEX 01 00:16:10
  TRACK 15 AUDIO
    TITLE "0:"
    INDEX 01 00:18:17
  TRACK 16 AUDIO
    TITLE "5:cjc081_2285"
    INDEX 01 00:18:56
  TRACK 17 AUDIO
    TITLE "0:"
    INDEX 01 00:20:10
  TRACK 18 AUDIO
    TITLE "6:cjc081_2286"
    INDEX 01 00:20:55
  TRACK 19 AUDIO
    TITLE "0:"
    INDEX 01 00:22:46
  TRACK 20 AUDIO
    TITLE "5:cjc081_2287"
    INDEX 01 00:23:14
  TRACK 21 AUDIO
    TITLE "0:"
    INDEX 01 00:24:27
  TRACK 22 AUDIO
    TITLE "6:cjc081_2288"
    INDEX 01 00:24:74
  TRACK 23 AUDIO
    TITLE "0:"
    INDEX 01 00:26:36
  TRACK 24 AUDIO
    TITLE "5:cjc081_2289"
    INDEX 01 00:27:04
  TRACK 25 AUDIO
    TITLE "0:"
    INDEX 01 00:28:51
  TRACK 26 AUDIO
    TITLE "6:cjc081_2290"
    INDEX 01 00:29:21
  TRACK 27 AUDIO
    TITLE "0:"
    INDEX 01 00:31:08
  TRACK 28 AUDIO
    TITLE "5:cjc081_2291"
    INDEX 01 00:31:53
  TRACK 29 AUDIO
    TITLE "0:"
    INDEX 01 00:32:60
  TRACK 30 AUDIO
    TITLE "6:cjc081_2292"
    INDEX 01 00:33:38
  TRACK 31 AUDIO
    TITLE "0:"
    INDEX 01 00:34:42
  TRACK 32 AUDIO
    TITLE "5:cjc081_2293"
    INDEX 01 00:35:12
  TRACK 33 AUDIO
    TITLE "0:"
    INDEX 01 00:36:31
  TRACK 34 AUDIO
    TITLE "6:cjc081_2294"
    INDEX 01 00:37:05
  TRACK 35 AUDIO
    TITLE "0:"
    INDEX 01 00:38:69
  TRACK 36 AUDIO
    TITLE "5:cjc081_2295"
    INDEX 01 00:39:39
  TRACK 37 AUDIO
    TITLE "0:"
    INDEX 01 00:40:46
  TRACK 38 AUDIO
    TITLE "6:cjc081_2296"
    INDEX 01 00:41:24
  TRACK 39 AUDIO
    TITLE "0:"
    INDEX 01 00:42:23
  TRACK 40 AUDIO
    TITLE "5:cjc081_2297"
    INDEX 01 00:42:70
  TRACK 41 AUDIO
    TITLE "0:"
    INDEX 01 00:44:07
  TRACK 42 AUDIO
    TITLE "6:cjc081_2298"
    INDEX 01 00:44:58
  TRACK 43 AUDIO
    TITLE "0:"
    INDEX 01 00:46:02
  TRACK 44 AUDIO
    TITLE "5:cjc081_2299"
    INDEX 01 00:46:47
  TRACK 45 AUDIO
    TITLE "0:"
    INDEX 01 00:47:70
  TRACK 46 AUDIO
    TITLE "6:cjc081_2300"
    INDEX 01 00:48:40
  TRACK 47 AUDIO
    TITLE "0:"
    INDEX 01 00:51:30
  TRACK 48 AUDIO
    TITLE "5:cjc081_2301"
    INDEX 01 00:51:73
  TRACK 49 AUDIO
    TITLE "0:"
    INDEX 01 00:53:25
  TRACK 50 AUDIO
    TITLE "6:cjc081_2302"
    INDEX 01 00:53:74
  TRACK 51 AUDIO
    TITLE "0:"
    INDEX 01 00:56:51
  TRACK 52 AUDIO
    TITLE "5:cjc081_2303"
    INDEX 01 00:57:17
  TRACK 53 AUDIO
    TITLE "0:"
    INDEX 01 00:58:60
  TRACK 54 AUDIO
    TITLE "6:cjc081_2304"
    INDEX 01 00:59:28
  TRACK 55 AUDIO
    TITLE "0:"
    INDEX 01 01:01:60
  TRACK 56 AUDIO
    TITLE "5:cjc081_2305"
    INDEX 01 01:02:28
  TRACK 57 AUDIO
    TITLE "0:"
    INDEX 01 01:03:57
  TRACK 58 AUDIO
    TITLE "6:cjc081_2306"
    INDEX 01 01:04:29
  TRACK 59 AUDIO
    TITLE "0:"
    INDEX 01 01:05:68
  TRACK 60 AUDIO
    TITLE "5:cjc081_2307"
    INDEX 01 01:06:38
  TRACK 61 AUDIO
    TITLE "0:"
    INDEX 01 01:07:57
  TRACK 62 AUDIO
    TITLE "6:cjc081_2308"
    INDEX 01 01:08:27
  TRACK 63 AUDIO
    TITLE "0:"
    INDEX 01 01:10:20
  TRACK 64 AUDIO
    TITLE "5:cjc081_2309"
    INDEX 01 01:10:63
  TRACK 65 AUDIO
    TITLE "0:"
    INDEX 01 01:12:05
  TRACK 66 AUDIO
    TITLE "6:cjc081_2310"
    INDEX 01 01:12:44
  TRACK 67 AUDIO
    TITLE "0:"
    INDEX 01 01:14:02
  TRACK 68 AUDIO
    TITLE "5:cjc081_2311"
    INDEX 01 01:14:45
  TRACK 69 AUDIO
    TITLE "0:"
    INDEX 01 01:15:60
  TRACK 70 AUDIO
    TITLE "6:cjc081_2312"
    INDEX 01 01:16:30
  TRACK 71 AUDIO
    TITLE "0:"
    INDEX 01 01:17:49
  TRACK 72 AUDIO
    TITLE "5:cjc081_2313"
    INDEX 01 01:18:17
  TRACK 73 AUDIO
    TITLE "0:"
    INDEX 01 01:19:42
  TRACK 74 AUDIO
    TITLE "6:cjc081_2314"
    INDEX 01 01:20:16
  TRACK 75 AUDIO
    TITLE "0:"
    INDEX 01 01:21:16
  TRACK 76 AUDIO
    TITLE "5:cjc081_2315"
    INDEX 01 01:21:61
  TRACK 77 AUDIO
    TITLE "0:"
    INDEX 01 01:23:05
  TRACK 78 AUDIO
    TITLE "6:cjc081_2316"
    INDEX 01 01:23:52
  TRACK 79 AUDIO
    TITLE "0:"
    INDEX 01 01:24:63
  TRACK 80 AUDIO
    TITLE "5:cjc081_2317"
    INDEX 01 01:25:31
  TRACK 81 AUDIO
    TITLE "0:"
    INDEX 01 01:26:58
  TRACK 82 AUDIO
    TITLE "6:cjc081_2318"
    INDEX 01 01:27:28
  TRACK 83 AUDIO
    TITLE "0:"
    INDEX 01 01:28:33
  TRACK 84 AUDIO
    TITLE "5:cjc081_2319"
    INDEX 01 01:29:03
  TRACK 85 AUDIO
    TITLE "0:"
    INDEX 01 01:30:36
  TRACK 86 AUDIO
    TITLE "6:cjc081_2320"
    INDEX 01 01:31:08
  TRACK 87 AUDIO
    TITLE "0:"
    INDEX 01 01:32:27
  TRACK 88 AUDIO
    TITLE "5:cjc081_2321"
    INDEX 01 01:32:74
  TRACK 89 AUDIO
    TITLE "0:"
    INDEX 01 01:34:20
  TRACK 90 AUDIO
    TITLE "6:cjc081_2322"
    INDEX 01 01:34:67
  TRACK 91 AUDIO
    TITLE "0:"
    INDEX 01 01:36:11
  TRACK 92 AUDIO
    TITLE "5:cjc081_2323"
    INDEX 01 01:36:56
  TRACK 93 AUDIO
    TITLE "0:"
    INDEX 01 01:38:08
  TRACK 94 AUDIO
    TITLE "6:cjc081_2324"
    INDEX 01 01:38:55
  TRACK 95 AUDIO
    TITLE "0:"
    INDEX 01 01:42:10
  TRACK 96 AUDIO
    TITLE "5:cjc081_2325"
    INDEX 01 01:42:53
  TRACK 97 AUDIO
    TITLE "0:"
    INDEX 01 01:43:68
  TRACK 98 AUDIO
    TITLE "6:cjc081_2326"
    INDEX 01 01:44:46
  TRACK 99 AUDIO
    TITLE "0:"
    INDEX 01 01:46:37
  TRACK 100 AUDIO
    TITLE "5:cjc081_2327"
    INDEX 01 01:47:07
  TRACK 101 AUDIO
    TITLE "0:"
    INDEX 01 01:48:46
  TRACK 102 AUDIO
    TITLE "6:cjc081_2328"
    INDEX 01 01:49:12
  TRACK 103 AUDIO
    TITLE "0:"
    INDEX 01 01:52:36
  TRACK 104 AUDIO
    TITLE "5:cjc081_2329"
    INDEX 01 01:53:02
  TRACK 105 AUDIO
    TITLE "0:"
    INDEX 01 01:54:05
  TRACK 106 AUDIO
    TITLE "6:cjc081_2330"
    INDEX 01 01:54:52
  TRACK 107 AUDIO
    TITLE "0:"
    INDEX 01 01:56:06
  TRACK 108 AUDIO
    TITLE "5:cjc081_2331"
    INDEX 01 01:56:49
  TRACK 109 AUDIO
    TITLE "0:"
    INDEX 01 01:57:70
  TRACK 110 AUDIO
    TITLE "6:cjc081_2332"
    INDEX 01 01:58:38
  TRACK 111 AUDIO
    TITLE "0:"
    INDEX 01 02:00:31
  TRACK 112 AUDIO
    TITLE "7:cjc081_2333"
    INDEX 01 02:01:68
  TRACK 113 AUDIO
    TITLE "0:"
    INDEX 01 02:12:21
  TRACK 114 AUDIO
    TITLE "4:cjc081_2334"
    INDEX 01 02:14:65
  TRACK 115 AUDIO
    TITLE "0:"
    INDEX 01 02:17:63
